HIERARCHY
ROOT Hips
{
	OFFSET 0.000000 0.000000 0.000000
	CHANNELS 6 Xposition Yposition Zposition Zrotation Yrotation Xrotation 
	JOINT LHipJoint
	{
		OFFSET 0.000000 0.000000 0.000000
		CHANNELS 3 Zrotation Yrotation Xrotation
		JOINT LeftUpLeg
		{
			OFFSET 1.363060 -1.794630 0.839290
			CHANNELS 3 Zrotation Yrotation Xrotation
			JOINT LeftLeg
			{
				OFFSET 2.448110 -6.726130 0.000000
				CHANNELS 3 Zrotation Yrotation Xrotation
				JOINT LeftFoot
				{
					OFFSET 2.562200 -7.039590 0.000000
					CHANNELS 3 Zrotation Yrotation Xrotation
					JOINT LeftToeBase
					{
						OFFSET 0.157640 -0.433110 2.322550
						CHANNELS 3 Zrotation Yrotation Xrotation
						End Site
						{
							OFFSET 0.000000 0.000000 0.000000
						}
					}
				}
			}
		}
	}
	JOINT RHipJoint
	{
		OFFSET 0.000000 0.000000 0.000000
		CHANNELS 3 Zrotation Yrotation Xrotation
		JOINT RightUpLeg
		{
			OFFSET -1.305520 -1.794630 0.839290
			CHANNELS 3 Zrotation Yrotation Xrotation
			JOINT RightLeg
			{
				OFFSET -2.542530 -6.985550 0.000000
				CHANNELS 3 Zrotation Yrotation Xrotation
				JOINT RightFoot
				{
					OFFSET -2.568260 -7.056230 0.000000
					CHANNELS 3 Zrotation Yrotation Xrotation
					JOINT RightToeBase
					{
						OFFSET -0.164730 -0.452590 2.363150
						CHANNELS 3 Zrotation Yrotation Xrotation
						End Site
						{
							OFFSET 0.000000 0.000000 0.000000
						}
					}
				}
			}
		}
	}
}
MOTION
Frames: 19
Frame Time: 0.008333
4.930539 17.297403 0.964372 -176.352536 -62.852013 -175.572321 -12.316503 2.375233 -1.194802 -5.632850 30.426806 -11.783921 -2.467846 -1.189271 4.355388 2.085739 14.995214 -5.518843 0.476600 0.000001 -25.682500 8.000527 -2.882257 6.327992 5.018601 10.523773 -9.845574 3.592916 1.501325 -3.214050 1.690086 11.782572 4.168355 1.806100 0.000000 -37.474800
4.924169 17.299153 0.966396 -176.357720 -62.101243 -175.360778 -12.333671 2.384500 -1.237254 -5.784366 30.798092 -12.036708 -2.495871 -1.191676 4.353496 2.122008 15.230217 -5.558488 0.478099 -0.000000 -25.549301 7.962815 -2.866818 6.440037 4.954908 10.925826 -10.343520 3.617019 1.484158 -2.911733 1.731602 12.132509 4.223065 1.882200 -0.000000 -37.586300
4.918861 17.300947 0.968548 -176.362380 -61.353910 -175.145572 -12.349494 2.397646 -1.284533 -5.943658 31.190376 -12.293135 -2.529847 -1.192587 4.326442 2.151358 15.423368 -5.580751 0.481900 -0.000000 -25.427400 7.927450 -2.845640 6.547137 4.888097 11.319534 -10.839181 3.640462 1.468966 -2.621765 1.772249 12.471626 4.286328 1.957700 0.000001 -37.693301
4.914840 17.302720 0.970729 -176.365996 -60.617369 -174.926862 -12.363032 2.414786 -1.335430 -6.111491 31.595401 -12.555276 -2.569404 -1.191624 4.277224 2.173995 15.574783 -5.587129 0.487900 0.000001 -25.318100 7.895151 -2.818029 6.648421 4.818709 11.702378 -11.330347 3.663017 1.456331 -2.347317 1.811405 12.793169 4.356180 2.031200 -0.000001 -37.791099
4.912240 17.304439 0.972935 -176.366139 -59.898690 -174.707360 -12.373645 2.435871 -1.389544 -6.286088 32.006899 -12.822236 -2.614056 -1.188313 4.209042 2.190039 15.684202 -5.579194 0.495800 0.000000 -25.223300 7.866619 -2.783374 6.742241 4.748413 12.070920 -11.811483 3.684566 1.446681 -2.091970 1.848548 13.091419 4.432276 2.101501 -0.000000 -37.880100
4.911402 17.306121 0.975150 -176.363729 -59.204484 -174.489422 -12.380571 2.460589 -1.446397 -6.466009 32.418325 -13.093418 -2.663117 -1.182249 4.124446 2.199764 15.752735 -5.557156 0.505800 -0.000000 -25.143900 7.842612 -2.741076 6.827079 4.678869 12.421764 -12.278186 3.704950 1.440222 -1.858393 1.883252 13.361618 4.514398 2.167500 0.000000 -37.962800
4.912229 17.307785 0.977338 -176.354738 -58.540327 -174.274857 -12.383496 2.488900 -1.504893 -6.650118 32.823576 -13.368241 -2.715865 -1.173372 4.025073 2.203618 15.782613 -5.521157 0.517900 -0.000000 -25.079900 7.823564 -2.691281 6.902205 4.611789 12.751560 -12.727605 3.724275 1.437231 -1.648889 1.915313 13.601009 4.603146 2.228800 0.000000 -38.044100
4.914997 17.309483 0.979499 -176.341386 -57.910729 -174.065915 -12.381967 2.520263 -1.564741 -6.836262 33.218334 -13.644738 -2.771514 -1.161576 3.912326 2.201911 15.775663 -5.470950 0.532300 -0.000000 -25.031800 7.810109 -2.633882 6.966322 4.548857 13.056209 -13.156411 3.742499 1.437582 -1.464680 1.944649 13.808749 4.699246 2.285300 0.000000 -38.131100
4.919534 17.311270 0.981639 -176.321299 -57.319883 -173.862774 -12.375968 2.554607 -1.624218 -7.024730 33.597069 -13.922958 -2.829211 -1.147232 3.786259 2.195296 15.735926 -5.405540 0.549500 0.000000 -24.997800 7.802380 -2.569825 7.019765 4.490910 13.333085 -13.564209 3.759750 1.441261 -1.306557 1.971320 13.984876 4.804282 2.337299 -0.000000 -38.230100
4.925989 17.313266 0.983796 -176.296495 -56.771087 -173.668775 -12.365774 2.591313 -1.683364 -7.211899 33.957998 -14.197665 -2.888022 -1.130538 3.646328 2.184027 15.665712 -5.323694 0.569900 0.000000 -24.977600 7.800540 -2.499601 7.061406 4.439836 13.578240 -13.946519 3.776102 1.447924 -1.175164 1.995444 14.131371 4.919446 2.385400 0.000000 -38.347900
4.934063 17.315538 0.986027 -176.264402 -56.267240 -173.486342 -12.352137 2.630184 -1.741123 -7.395641 34.298170 -14.464615 -2.946935 -1.112018 3.491159 2.168551 15.568555 -5.223595 0.593900 -0.000000 -24.969000 7.804313 -2.424520 7.091247 4.396835 13.788864 -14.300633 3.791781 1.457283 -1.070591 2.017256 14.251166 5.046797 2.430500 -0.000000 -38.490200
4.943813 17.318172 0.988467 -176.226872 -55.810795 -173.319529 -12.335750 2.670489 -1.797701 -7.571775 34.616722 -14.717169 -3.004914 -1.092043 3.319239 2.149143 15.447178 -5.103717 0.621900 -0.000000 -24.970200 7.813513 -2.345317 7.108315 4.363670 13.961823 -14.621826 3.806893 1.468870 -0.992303 2.036917 14.347513 5.186179 2.473200 0.000000 -38.651701
4.955164 17.321175 0.991237 -176.185002 -55.405557 -173.171450 -12.317630 2.712095 -1.851920 -7.737261 34.910725 -14.950345 -3.060954 -1.071017 3.131443 2.126273 15.304331 -4.965630 0.653200 -0.000000 -24.980201 7.827444 -2.263319 7.113136 4.340440 14.097289 -14.905977 3.821399 1.482364 -0.939941 2.054353 14.419736 5.338558 2.513500 0.000000 -38.849700
4.967912 17.324684 0.994435 -176.137973 -55.053387 -173.046708 -12.298752 2.754186 -1.904812 -7.886106 35.179896 -15.154996 -3.113948 -1.049258 2.925191 2.100181 15.143004 -4.806351 0.688399 0.000000 -24.995000 7.845879 -2.179016 7.104059 4.329192 14.192677 -15.147652 3.835409 1.497172 -0.911181 2.069715 14.472119 5.501784 2.551701 0.000000 -39.056800
4.982062 17.328536 0.998342 -176.084876 -54.758211 -172.951157 -12.280251 2.796617 -1.955923 -8.012961 35.421632 -15.324609 -3.162975 -1.026813 2.703928 2.071236 14.964300 -4.630493 0.726000 -0.000000 -25.014500 7.868030 -2.093257 7.081024 4.330021 14.250121 -15.340500 3.848778 1.513001 -0.904570 2.082603 14.500842 5.674618 2.586600 -0.000000 -39.294200
4.997435 17.332806 1.003002 -176.025707 -54.522600 -172.886819 -12.262436 2.838686 -2.006032 -8.114172 35.633456 -15.454041 -3.207209 -1.003855 2.467324 2.039922 14.771292 -4.438116 0.765700 0.000000 -25.035200 7.893849 -2.006060 7.043017 4.343288 14.270527 -15.482736 3.861277 1.529360 -0.915994 2.092806 14.505433 5.852107 2.616901 0.000000 -39.530700
5.014040 17.337350 1.008583 -175.959840 -54.349149 -172.856913 -12.245559 2.880012 -2.055571 -8.185704 35.812163 -15.539423 -3.245984 -0.980248 2.219001 2.006728 14.565766 -4.233124 0.806199 -0.000000 -25.055900 7.923167 -1.917413 6.989541 4.368388 14.257598 -15.571804 3.872526 1.545892 -0.941627 2.099816 14.481133 6.029786 2.640600 0.000000 -39.763500
5.031699 17.342085 1.015134 -175.884712 -54.239781 -172.861907 -12.229392 2.920147 -2.105140 -8.225963 35.953977 -15.580174 -3.278941 -0.955984 1.961655 1.972183 14.349509 -4.019448 0.846500 -0.000000 -25.075299 7.956101 -1.827103 6.920080 4.404387 14.215398 -15.608987 3.882097 1.562256 -0.976496 2.103115 14.422674 6.202743 2.655100 0.000000 -39.985099
5.050553 17.346865 1.022694 -175.801106 -54.195403 -172.900761 -12.213007 2.958514 -2.155915 -8.235106 36.056136 -15.578372 -3.306040 -0.930910 1.699206 1.936764 14.123986 -3.801312 0.885300 0.000000 -25.092500 7.993164 -1.734423 6.834196 4.449474 14.149177 -15.598378 3.889420 1.578080 -1.014924 2.102236 14.325364 6.364818 2.658100 0.000000 -40.181300
